<mxfile host="app.diagrams.net" modified="2024-01-30T20:57:39.897Z" agent="Mozilla/5.0 (Windows NT 10.0; Win64; x64) AppleWebKit/537.36 (KHTML, like Gecko) Chrome/121.0.0.0 Safari/537.36" version="23.0.2" etag="HRB8fw39fRg1NvxHAEhh" type="github">
  <diagram name="Page-1" id="VP876D1qbgF-e4eQBRn-">
    <mxGraphModel>
      <root>
        <mxCell id="0" />
        <mxCell id="1" parent="0" />
      </root>
    </mxGraphModel>
  </diagram>
</mxfile>
